<?xml version="1.0" standalone="no"?>
<!DOCTYPE svg PUBLIC "-//W3C//DTD SVG 20010904//EN"
 "http://www.w3.org/TR/2001/REC-SVG-20010904/DTD/svg10.dtd">
<svg version="1.0" xmlns="http://www.w3.org/2000/svg"
 width="427.000000pt" height="292.000000pt" viewBox="0 0 427.000000 292.000000"
 preserveAspectRatio="xMidYMid meet">

<g transform="translate(0.000000,292.000000) scale(0.100000,-0.100000)"
fill="#000000" stroke="none">
<path d="M0 190 c0 -7 618 -10 1833 -10 l1832 0 90 -90 c49 -50 94 -90 100
-90 5 0 -35 45 -90 100 l-100 100 -1832 0 c-1215 0 -1833 -3 -1833 -10z"/>
<path d="M3872 98 l2 -103 3 93 4 92 139 0 140 0 0 -90 0 -90 55 0 55 0 0 100
0 100 -200 0 -200 0 2 -102z"/>
</g>
</svg>
